<svg width="1400" height="420" viewBox="0 0 1400 420" fill="none" xmlns="http://www.w3.org/2000/svg">
  <defs>
    <linearGradient id="bg" x1="0" y1="0" x2="1" y2="1">
      <stop offset="0%" stop-color="#0C1222"/>
      <stop offset="100%" stop-color="#15294A"/>
    </linearGradient>
    <linearGradient id="ring" x1="0" y1="0" x2="1" y2="1">
      <stop offset="0%" stop-color="#4FE3C1"/>
      <stop offset="100%" stop-color="#35A6FF"/>
    </linearGradient>
    <linearGradient id="bar" x1="0" y1="0" x2="0" y2="1">
      <stop offset="0%" stop-color="#FFFFFF" stop-opacity="0.95"/>
      <stop offset="100%" stop-color="#D8ECFF" stop-opacity="0.9"/>
    </linearGradient>
  </defs>

  <rect x="0" y="0" width="1400" height="420" rx="36" fill="url(#bg)"/>

  <g transform="translate(64,58)">
    <rect x="0" y="0" width="300" height="300" rx="52" fill="#0A0F1D"/>
    <rect x="16" y="16" width="268" height="268" rx="40" fill="#111C34"/>

    <circle cx="150" cy="150" r="94" fill="none" stroke="url(#ring)" stroke-width="20"/>
    <circle cx="150" cy="150" r="44" fill="#0A0F1D" stroke="#8FD9FF" stroke-width="8"/>

    <g transform="translate(106,108)">
      <rect x="0" y="0" width="16" height="84" rx="8" fill="url(#bar)"/>
      <rect x="36" y="10" width="16" height="74" rx="8" fill="url(#bar)"/>
      <rect x="72" y="22" width="16" height="62" rx="8" fill="url(#bar)"/>
    </g>

    <rect x="222" y="28" width="44" height="44" rx="10" fill="#162948" stroke="#4FE3C1" stroke-width="4"/>
    <rect x="234" y="40" width="20" height="20" rx="4" fill="#4FE3C1"/>
  </g>

  <g transform="translate(408,90)" fill="#F5FAFF">
    <text x="0" y="118" font-family="Segoe UI, Arial, sans-serif" font-size="88" font-weight="700" letter-spacing="1">Quick Camera Profile</text>
    <text x="0" y="176" font-family="Segoe UI, Arial, sans-serif" font-size="34" font-weight="400" fill="#A4C8E8">Fast camera profiling for Capture One and Lightroom</text>
    <text x="0" y="230" font-family="Segoe UI, Arial, sans-serif" font-size="28" font-weight="600" fill="#4FE3C1">QCP</text>
  </g>
</svg>
